<svg width="14" height="14" viewBox="0 0 14 14" fill="none" xmlns="http://www.w3.org/2000/svg">
<g clip-path="url(#clip0)">
<path d="M7 0C3.13396 0 0 3.13425 0 7C0 10.866 3.13396 14 7 14C10.866 14 14 10.8663 14 7C14 3.13425 10.866 0 7 0ZM7.00846 12.7878C3.79342 12.7878 1.18708 10.1815 1.18708 6.96675C1.18708 3.752 3.79342 1.14508 7.00846 1.14508C10.2232 1.14508 12.8298 3.75142 12.8298 6.96646C12.8298 10.1815 10.2235 12.7878 7.00846 12.7878Z" fill="white"/>
<path d="M9.49672 6.38809H7.61313L7.61547 4.47009C7.60788 4.33767 7.55101 4.07517 7.22726 4.07459L6.76672 4.07401C6.42226 4.07371 6.3928 4.4138 6.39105 4.50275L6.38872 6.3878H4.46167C4.10584 6.3878 4.0758 6.66225 4.07434 6.74071V7.26834C4.07609 7.34038 4.10555 7.61192 4.46167 7.61192H6.38726L6.38492 9.5375C6.38434 9.89305 6.6588 9.92367 6.73755 9.92542L7.26517 9.926C7.33722 9.92425 7.60876 9.8948 7.60934 9.53925L7.61167 7.61221H9.53113C9.66355 7.60434 9.92605 7.54717 9.92605 7.22342V6.76317C9.92576 6.41871 9.58567 6.38984 9.49672 6.38809Z" fill="white"/>
</g>
<defs>
<clipPath id="clip0">
<rect width="14" height="14" fill="white"/>
</clipPath>
</defs>
</svg>

