<svg width="11" height="12" viewBox="0 0 11 12" fill="none" xmlns="http://www.w3.org/2000/svg">
<path d="M1.75013 5.56265C1.23263 5.56265 0.812317 5.98234 0.812317 6.50015V10.5627C0.812317 11.0805 1.23263 11.5002 1.75013 11.5002H9.25013C9.76794 11.5002 10.1876 11.0805 10.1876 10.5627V6.50015C10.1876 5.98234 9.76794 5.56265 9.25013 5.56265H8.93763V3.68734C8.93763 2.13422 7.36607 0.875153 5.81232 0.875153H5.18732C3.6345 0.875153 2.06232 2.13422 2.06232 3.68734V5.56265H1.75013ZM8.00013 5.56265H3.00013V3.73234C3.00013 2.4989 4.1195 1.81265 5.50013 1.81265C6.88075 1.81265 8.00013 2.4989 8.00013 3.73234V5.56265Z" fill="#BEBEBE"/>
</svg>
