<svg width="51" height="51" viewBox="0 0 51 51" fill="none" xmlns="http://www.w3.org/2000/svg">
<g clip-path="url(#clip0)">
<path d="M25.5 51C39.5833 51 51 39.5833 51 25.5C51 11.4167 39.5833 0 25.5 0C11.4167 0 0 11.4167 0 25.5C0 39.5833 11.4167 51 25.5 51Z" fill="#9075CE"/>
<path fill-rule="evenodd" clip-rule="evenodd" d="M43.3972 43.6621C38.5849 48.4055 32.0864 51.0445 25.3295 50.9995C18.5726 50.9545 12.1099 48.229 7.36121 43.422C7.96851 41.7425 9.14805 40.3307 10.6927 39.4344C11.7338 38.6646 12.8627 38.0214 14.0556 37.5181C12.2417 31.2851 17.1725 28.2209 19.0591 27.3387C19.0591 30.2164 21.7535 28.3068 25.0974 28.3431C27.8504 28.3736 33.2945 31.1448 33.2945 27.4889C36.3232 28.3852 39.6242 34.1569 37.3523 37.703C38.2838 38.1585 39.1638 38.7123 39.9774 39.3551C41.5679 40.3672 42.7722 41.8843 43.3972 43.6629V43.6621Z" fill="#FFFF56"/>
<path fill-rule="evenodd" clip-rule="evenodd" d="M19.8323 31.9205L32.1449 31.9948V34.8311L32.1392 34.8749C32.1306 35.0034 32.1113 35.1309 32.0814 35.2561L32.0401 35.5376L32.0154 35.5961C31.2182 39.7834 27.7299 41.4017 25.576 42.529C23.3066 41.2928 20.098 39.0655 19.843 35.1249L19.8323 35.0762V34.9112C19.8305 34.8543 19.8294 34.7973 19.829 34.7404C19.829 34.7701 19.8315 34.7981 19.8323 34.8278V31.9205Z" fill="#F9DCA4"/>
<path opacity="0.11" fill-rule="evenodd" clip-rule="evenodd" d="M32.1458 31.8685V35.1736C32.1434 35.48 32.1171 35.7857 32.0674 36.088C32.0049 36.4622 31.8997 36.8279 31.7538 37.1781C27.4757 40.409 20.6592 37.7591 19.5707 32.2407L32.1458 31.8685Z" fill="black"/>
<path fill-rule="evenodd" clip-rule="evenodd" d="M14.9402 20.8251C10.8635 21.8731 14.3295 26.8411 16.8936 26.8197C15.8596 24.9672 15.1961 22.9311 14.9402 20.8251Z" fill="#F9DCA4"/>
<path fill-rule="evenodd" clip-rule="evenodd" d="M36.1762 20.8251C40.2529 21.8731 36.7869 26.8411 34.222 26.8188C35.2563 24.9667 35.9201 22.9309 36.1762 20.8251Z" fill="#F9DCA4"/>
<path fill-rule="evenodd" clip-rule="evenodd" d="M25.3623 9.37561C42.2988 9.37561 35.6985 36.1515 25.3623 36.1515C15.5996 36.1515 8.42575 9.37561 25.3623 9.37561Z" fill="#FFE8BE"/>
<path fill-rule="evenodd" clip-rule="evenodd" d="M17.3689 18.242C17.5134 18.4004 17.6206 18.5892 17.6825 18.7944C17.7444 18.9996 17.7596 19.2162 17.7268 19.428C17.694 19.6399 17.6142 19.8417 17.4931 20.0186C17.372 20.1956 17.2129 20.3431 17.0273 20.4504C15.8307 21.4349 15.7869 24.8679 15.7869 24.8679C15.3248 24.4091 15.3355 21.9515 14.3337 20.5313C13.3318 19.111 12.6568 9.17342 18.2594 5.55968C17.9151 5.96463 17.667 6.44228 17.5336 6.9568C17.4003 7.47132 17.3852 8.00936 17.4894 8.53056C17.4894 8.53056 21.3813 2.94943 27.838 3.11035C27.3261 3.38946 26.8788 3.77329 26.5252 4.23683C26.1715 4.70037 25.9195 5.23321 25.7856 5.80065C25.7856 5.80065 31.4303 3.47181 36.1342 6.24215C34.9112 6.58018 33.7545 7.12349 32.7135 7.84891C34.9978 7.91162 37.2054 8.3358 38.8699 9.81629C38.5116 9.9313 38.1801 10.1169 37.8948 10.3622C37.6095 10.6075 37.3763 10.9075 37.2089 11.2445C37.0415 11.5814 36.9433 11.9485 36.9202 12.324C36.897 12.6996 36.9494 13.0759 37.0741 13.4309C37.7805 16.3217 37.8466 19.0112 37.1624 20.457C36.4783 21.9028 36.1556 20.9695 35.7273 24.0014C35.7063 24.2063 35.638 24.4034 35.5277 24.5773C35.4174 24.7511 35.2682 24.897 35.0919 25.0033C35.0754 25.2228 35.4071 21.9037 34.5514 21.0198C33.6964 20.1368 34.2336 19.0516 34.5753 18.4096C36.9603 13.931 29.8178 11.9017 25.9135 11.9066C22.5275 11.9108 14.3601 13.4498 17.3689 18.242Z" fill="#8A5C42"/>
<path fill-rule="evenodd" clip-rule="evenodd" d="M16.3317 40.5707C16.3564 40.6021 24.9291 51.6975 35.007 40.4057C33.7897 43.7496 28.5395 46.4052 25.5365 46.3969C19.801 46.3804 16.6271 41.7756 16.3317 40.5707Z" fill="#434955"/>
<path fill-rule="evenodd" clip-rule="evenodd" d="M29.9861 50.6065C29.6477 50.6659 29.3077 50.7179 28.9652 50.765V43.3897C28.9778 43.2662 29.0382 43.1525 29.1335 43.0729C29.2288 42.9934 29.3515 42.9542 29.4752 42.9639C29.5992 42.954 29.722 42.993 29.8175 43.0726C29.913 43.1522 29.9735 43.2661 29.9861 43.3897V50.6065ZM21.8822 50.7435C21.54 50.6945 21.1997 50.6395 20.8613 50.5785V43.3897C20.8739 43.2662 20.9343 43.1525 21.0296 43.0729C21.1249 42.9934 21.2475 42.9542 21.3713 42.9639C21.4954 42.9538 21.6185 42.9927 21.7141 43.0723C21.8098 43.1519 21.8704 43.2659 21.883 43.3897L21.8822 50.7435Z" fill="#E6E6E6"/>
</g>
<defs>
<clipPath id="clip0">
<rect width="51" height="51" fill="white"/>
</clipPath>
</defs>
</svg>
