<svg width="14" height="14" viewBox="0 0 14 14" fill="none" xmlns="http://www.w3.org/2000/svg">
<g clip-path="url(#clip0)">
<path d="M11.8125 1.25368V12.6287C11.8125 12.7447 11.7664 12.856 11.6843 12.938C11.6023 13.0201 11.491 13.0662 11.375 13.0662H2.62497C2.50894 13.0662 2.39766 13.0201 2.31561 12.938C2.23357 12.856 2.18747 12.7447 2.18747 12.6287V11.7537H3.06247V12.1912H10.9375V1.69118H3.06247V3.00368H2.18747V1.25368C2.18747 1.13765 2.23357 1.02637 2.31561 0.944318C2.39766 0.862271 2.50894 0.816177 2.62497 0.816177H11.375C11.491 0.816177 11.6023 0.862271 11.6843 0.944318C11.7664 1.02637 11.8125 1.13765 11.8125 1.25368ZM4.6856 8.81805L3.24185 7.37868H7.87497V6.50368H3.24185L4.6856 5.0643L4.06435 4.44305L1.87685 6.63055C1.83584 6.67122 1.80329 6.71961 1.78108 6.77293C1.75887 6.82624 1.74744 6.88342 1.74744 6.94118C1.74744 6.99893 1.75887 7.05612 1.78108 7.10943C1.80329 7.16274 1.83584 7.21113 1.87685 7.2518L4.06435 9.4393L4.6856 8.81805Z" fill="white"/>
</g>
<defs>
<clipPath id="clip0">
<rect width="14" height="14" fill="white"/>
</clipPath>
</defs>
</svg>
