<svg width="32" height="32" xmlns="http://www.w3.org/2000/svg">

 <g>
  <title>background</title>
  <rect fill="none" id="canvas_background" height="402" width="582" y="-1" x="-1"/>
 </g>
 <g>
  <title>Layer 1</title>
  <path fill="#999999" stroke="null" id="XMLID_246_" d="m24.995667,7.315506l-4.943452,0l0,-0.823909c0,-1.362745 -1.108981,-2.471726 -2.471726,-2.471726l-3.295635,0c-1.362745,0 -2.471726,1.108981 -2.471726,2.471726l0,0.823909l-4.943452,0c-0.908771,0 -1.647817,0.739046 -1.647817,1.647817l0,0.823909c0,0.454798 0.369111,0.823909 0.823909,0.823909l19.773808,0c0.454798,0 0.823909,-0.369111 0.823909,-0.823909l0,-0.823909c0,-0.908771 -0.739046,-1.647817 -1.647817,-1.647817zm-11.534722,-0.823909c0,-0.453974 0.369935,-0.823909 0.823909,-0.823909l3.295635,0c0.453974,0 0.823909,0.369935 0.823909,0.823909l0,0.823909l-4.943452,0l0,-0.823909z"/>
  <path fill="#999999" id="XMLID_249_" d="m6,12l0,15c0,1.654 1.346,3 3,3l14,0c1.654,0 3,-1.346 3,-3l0,-15l-20,0zm13.707,10.293c0.391,0.391 0.391,1.023 0,1.414s-1.023,0.391 -1.414,0l-2.293,-2.293l-2.293,2.293c-0.391,0.391 -1.023,0.391 -1.414,0s-0.391,-1.023 0,-1.414l2.293,-2.293l-2.293,-2.293c-0.391,-0.391 -0.391,-1.023 0,-1.414s1.023,-0.391 1.414,0l2.293,2.293l2.293,-2.293c0.391,-0.391 1.023,-0.391 1.414,0s0.391,1.023 0,1.414l-2.293,2.293l2.293,2.293z"/>
 </g>
</svg>